<svg width="32" height="32" viewBox="0 0 32 32" fill="none" xmlns="http://www.w3.org/2000/svg">
<path d="M16 10.25C14.8628 10.25 13.7511 10.5872 12.8055 11.219C11.8599 11.8509 11.1229 12.7489 10.6877 13.7996C10.2525 14.8502 10.1386 16.0064 10.3605 17.1218C10.5824 18.2371 11.13 19.2617 11.9341 20.0658C12.7383 20.87 13.7628 21.4176 14.8782 21.6395C15.9936 21.8614 17.1498 21.7475 18.2004 21.3123C19.2511 20.8771 20.1491 20.1401 20.781 19.1945C21.4128 18.2489 21.75 17.1372 21.75 16C21.748 14.4756 21.1416 13.0142 20.0637 11.9363C18.9858 10.8584 17.5244 10.252 16 10.25ZM16 20.25C15.1594 20.25 14.3377 20.0007 13.6388 19.5337C12.9399 19.0667 12.3952 18.403 12.0735 17.6264C11.7518 16.8498 11.6677 15.9953 11.8317 15.1708C11.9957 14.3464 12.4004 13.5892 12.9948 12.9948C13.5892 12.4004 14.3465 11.9956 15.1709 11.8316C15.9953 11.6677 16.8498 11.7518 17.6264 12.0735C18.403 12.3952 19.0668 12.9399 19.5338 13.6388C20.0007 14.3377 20.25 15.1594 20.25 16C20.25 17.1272 19.8022 18.2082 19.0052 19.0052C18.2082 19.8022 17.1272 20.25 16 20.25ZM29.5 13.45C29.4783 13.3455 29.4344 13.2468 29.3715 13.1606C29.3086 13.0743 29.2279 13.0025 29.135 12.95L25.33 10.7775L25.2775 10.6887L25.2625 6.39998C25.2625 6.29165 25.2391 6.18461 25.1937 6.08621C25.1484 5.98781 25.0823 5.9004 25 5.82998C23.6711 4.70632 22.1411 3.84486 20.4913 3.29123C20.3921 3.25788 20.287 3.24566 20.1828 3.25535C20.0786 3.26503 19.9776 3.29642 19.8863 3.34748L16.0575 5.48248H15.9325L12.1138 3.34498C12.022 3.29377 11.9205 3.26241 11.8158 3.25293C11.7112 3.24346 11.6057 3.25608 11.5063 3.28998C9.85653 3.84522 8.32732 4.70887 7.00001 5.83498C6.91739 5.90503 6.85092 5.99213 6.80517 6.09031C6.75942 6.18849 6.73549 6.29542 6.73501 6.40373L6.71501 10.6962C6.69751 10.725 6.68001 10.755 6.66376 10.785L2.86376 12.9462C2.77037 12.9996 2.68955 13.0724 2.62679 13.1598C2.56403 13.2471 2.52079 13.347 2.50001 13.4525C2.16626 15.1353 2.16626 16.8672 2.50001 18.55C2.52176 18.6545 2.56557 18.7532 2.62851 18.8394C2.69146 18.9256 2.77209 18.9974 2.86501 19.05L6.66751 21.2162L6.72001 21.305L6.73501 25.5937C6.7344 25.7033 6.75781 25.8117 6.80359 25.9112C6.84938 26.0108 6.91642 26.0991 7.00001 26.17C8.32892 27.2936 9.85887 28.1551 11.5088 28.7087C11.6079 28.7421 11.713 28.7543 11.8172 28.7446C11.9214 28.7349 12.0224 28.7035 12.1138 28.6525L15.94 26.5175H16.065L19.885 28.655C19.9968 28.7168 20.1223 28.7494 20.25 28.75C20.3321 28.7503 20.4137 28.7368 20.4913 28.71C22.1388 28.154 23.6658 27.2904 24.9913 26.165C25.0739 26.0949 25.1403 26.0078 25.1861 25.9097C25.2318 25.8115 25.2558 25.7045 25.2563 25.5962L25.2763 21.3037C25.2938 21.275 25.3113 21.245 25.3275 21.215L29.13 19.0537C29.2236 19.0005 29.3047 18.9277 29.3677 18.8404C29.4306 18.753 29.4741 18.6531 29.495 18.5475C29.8304 16.865 29.8321 15.1331 29.5 13.45ZM28.0938 17.9237L24.415 20.0125C24.2957 20.0807 24.1972 20.1801 24.13 20.3C24.0563 20.425 23.9788 20.5637 23.8975 20.6925C23.8235 20.811 23.7841 20.9478 23.7838 21.0875L23.7638 25.2387C22.7295 26.0674 21.5677 26.7229 20.3238 27.18L16.625 25.11C16.5132 25.0471 16.3871 25.014 16.2588 25.0137H16.2413C16.0863 25.0137 15.9288 25.0137 15.7738 25.0137C15.6396 25.0105 15.5071 25.0433 15.39 25.1087L11.6813 27.1787C10.4357 26.724 9.27223 26.0701 8.23626 25.2425L8.22126 21.0962C8.22086 20.9565 8.18147 20.8197 8.10751 20.7012C8.02751 20.5762 7.94876 20.4412 7.87501 20.3087C7.8085 20.1888 7.71035 20.0893 7.59126 20.0212L3.91251 17.925C3.69866 16.651 3.69866 15.3502 3.91251 14.0762L7.58501 11.9875C7.70613 11.92 7.80643 11.8205 7.87501 11.7C7.94876 11.575 8.02626 11.4362 8.10751 11.3075C8.18147 11.189 8.22086 11.0522 8.22126 10.9125L8.24126 6.76123C9.27403 5.93307 10.434 5.27751 11.6763 4.81998L15.375 6.88998C15.4917 6.95653 15.6245 6.98941 15.7588 6.98498C15.9138 6.98498 16.0713 6.98498 16.2263 6.98498C16.3604 6.98821 16.4929 6.9554 16.61 6.88998L20.3163 4.81998C21.5618 5.2747 22.7253 5.92862 23.7613 6.75623L23.7763 10.9025C23.7766 11.0422 23.816 11.179 23.89 11.2975C23.97 11.4225 24.0488 11.5575 24.1225 11.69C24.189 11.81 24.2872 11.9094 24.4063 11.9775L28.0875 14.075C28.3026 15.3488 28.3039 16.6495 28.0913 17.9237H28.0938Z" fill="#1D1B1B" fill-opacity="0.5"/>
</svg>
