<svg width="12" height="10" viewBox="0 0 12 10" fill="none" xmlns="http://www.w3.org/2000/svg">
<path d="M8.125 0C7.05859 0 6.13133 0.480898 5.58594 1.2868C5.04055 0.480898 4.11328 0 3.04688 0C2.23908 0.000940779 1.46464 0.322252 0.893448 0.893448C0.322252 1.46464 0.000940779 2.23908 0 3.04687C0 4.52969 0.924219 6.07293 2.74727 7.63293C3.58264 8.34476 4.48501 8.974 5.44172 9.51184C5.48606 9.53566 5.5356 9.54813 5.58594 9.54813C5.63627 9.54813 5.68582 9.53566 5.73016 9.51184C6.68687 8.974 7.58923 8.34476 8.42461 7.63293C10.2477 6.07293 11.1719 4.52969 11.1719 3.04687C11.1709 2.23908 10.8496 1.46464 10.2784 0.893448C9.70723 0.322252 8.93279 0.000940779 8.125 0ZM5.58594 8.8923C4.75262 8.41141 0.609375 5.87641 0.609375 3.04687C0.610047 2.40062 0.86707 1.78102 1.32404 1.32404C1.78102 0.86707 2.40062 0.610047 3.04688 0.609375C4.07672 0.609375 4.94152 1.15934 5.3041 2.04496C5.32706 2.10084 5.36611 2.14864 5.41629 2.18228C5.46647 2.21592 5.52552 2.23388 5.58594 2.23388C5.64635 2.23388 5.7054 2.21592 5.75558 2.18228C5.80577 2.14864 5.84482 2.10084 5.86777 2.04496C6.23035 1.15934 7.09516 0.609375 8.125 0.609375C8.77126 0.610047 9.39086 0.86707 9.84783 1.32404C10.3048 1.78102 10.5618 2.40062 10.5625 3.04687C10.5625 5.87641 6.41926 8.41141 5.58594 8.8923Z" fill="#1D1B1B" fill-opacity="0.5"/>
</svg>
