<svg width="11" height="11" viewBox="0 0 11 11" fill="none" xmlns="http://www.w3.org/2000/svg">
<path d="M9.8072 9.44281L7.59946 7.23508C8.22903 6.51107 8.55289 5.57091 8.50279 4.61277C8.45269 3.65463 8.03253 2.75337 7.33088 2.09898C6.62924 1.44458 5.70092 1.08817 4.74162 1.10488C3.78232 1.12159 2.86698 1.51011 2.18854 2.18854C1.51011 2.86697 1.12159 3.78231 1.10489 4.74161C1.08818 5.70092 1.44459 6.62923 2.09898 7.33088C2.75338 8.03252 3.65464 8.45268 4.61278 8.50278C5.57091 8.55289 6.51108 8.22902 7.23509 7.59945L9.44282 9.80719C9.49169 9.85273 9.55633 9.87752 9.62312 9.87634C9.68992 9.87516 9.75364 9.84811 9.80088 9.80087C9.84811 9.75363 9.87517 9.68991 9.87635 9.62312C9.87753 9.55633 9.85274 9.49168 9.8072 9.44281ZM1.63282 4.8125C1.63282 4.18362 1.81931 3.56886 2.16869 3.04596C2.51808 2.52306 3.01468 2.11551 3.59569 1.87485C4.17671 1.63419 4.81603 1.57122 5.43283 1.69391C6.04963 1.8166 6.6162 2.11943 7.06089 2.56412C7.50557 3.00881 7.80841 3.57537 7.9311 4.19217C8.05379 4.80897 7.99082 5.4483 7.75016 6.02931C7.50949 6.61033 7.10194 7.10692 6.57905 7.45631C6.05615 7.8057 5.44139 7.99219 4.81251 7.99219C3.96952 7.99116 3.16134 7.65583 2.56526 7.05975C1.96917 6.46366 1.63384 5.65549 1.63282 4.8125Z" fill="#1D1B1B" fill-opacity="0.5"/>
</svg>
