<svg width="28" height="26" viewBox="0 0 28 26" fill="none" xmlns="http://www.w3.org/2000/svg">
<path d="M13.7503 7.0001C12.6131 7.0001 11.5014 7.33734 10.5558 7.96915C9.6102 8.60097 8.87321 9.499 8.438 10.5497C8.0028 11.6004 7.88893 12.7565 8.1108 13.8719C8.33266 14.9873 8.8803 16.0118 9.68445 16.816C10.4886 17.6201 11.5132 18.1678 12.6285 18.3896C13.7439 18.6115 14.9001 18.4976 15.9507 18.0624C17.0014 17.6272 17.8994 16.8902 18.5313 15.9446C19.1631 14.9991 19.5003 13.8873 19.5003 12.7501C19.4983 11.2257 18.8919 9.76434 17.814 8.68643C16.7361 7.60853 15.2747 7.00209 13.7503 7.0001ZM13.7503 17.0001C12.9097 17.0001 12.088 16.7508 11.3891 16.2839C10.6902 15.8169 10.1455 15.1531 9.82382 14.3765C9.50215 13.5999 9.41799 12.7454 9.58197 11.921C9.74596 11.0966 10.1507 10.3393 10.7451 9.7449C11.3395 9.15053 12.0968 8.74575 12.9212 8.58177C13.7456 8.41778 14.6001 8.50194 15.3767 8.82362C16.1533 9.14529 16.8171 9.69002 17.2841 10.3889C17.7511 11.0878 18.0003 11.9095 18.0003 12.7501C18.0003 13.8773 17.5525 14.9583 16.7555 15.7553C15.9585 16.5523 14.8775 17.0001 13.7503 17.0001ZM27.2503 10.2001C27.2286 10.0956 27.1847 9.99692 27.1218 9.91069C27.0589 9.82446 26.9782 9.75267 26.8853 9.7001L23.0803 7.52761L23.0278 7.43886L23.0128 3.15011C23.0128 3.04177 22.9894 2.93473 22.944 2.83633C22.8987 2.73793 22.8326 2.65052 22.7503 2.58011C21.4214 1.45645 19.8914 0.594978 18.2416 0.0413551C18.1424 0.00800577 18.0373 -0.00421802 17.9331 0.0054695C17.8289 0.015157 17.7279 0.0465416 17.6366 0.0976052L13.8078 2.23261H13.6828L9.86406 0.0951051C9.7723 0.0438908 9.67081 0.0125299 9.56615 0.00305504C9.4615 -0.00641981 9.35602 0.00620286 9.25656 0.040105C7.60683 0.595341 6.07763 1.45899 4.75031 2.58511C4.66769 2.65515 4.60122 2.74225 4.55548 2.84044C4.50973 2.93862 4.48579 3.04554 4.48531 3.15386L4.46531 7.44635C4.44781 7.4751 4.43031 7.5051 4.41406 7.5351L0.614061 9.69635C0.520675 9.74972 0.439859 9.82255 0.377097 9.9099C0.314335 9.99725 0.271096 10.0971 0.250311 10.2026C-0.0834371 11.8854 -0.0834371 13.6173 0.250311 15.3001C0.27206 15.4046 0.315872 15.5033 0.378817 15.5895C0.441763 15.6757 0.522391 15.7475 0.615311 15.8001L4.41781 17.9664L4.47031 18.0551L4.48531 22.3439C4.4847 22.4534 4.50811 22.5618 4.5539 22.6614C4.59968 22.7609 4.66673 22.8492 4.75031 22.9201C6.07923 24.0438 7.60917 24.9052 9.25906 25.4589C9.35825 25.4922 9.46332 25.5044 9.56751 25.4947C9.67171 25.4851 9.77272 25.4537 9.86406 25.4026L13.6903 23.2676H13.8153L17.6353 25.4051C17.7471 25.4669 17.8726 25.4996 18.0003 25.5001C18.0824 25.5005 18.164 25.4869 18.2416 25.4601C19.8891 24.9042 21.4161 24.0405 22.7416 22.9151C22.8242 22.8451 22.8906 22.758 22.9364 22.6598C22.9821 22.5616 23.0061 22.4547 23.0066 22.3464L23.0266 18.0539C23.0441 18.0251 23.0616 17.9951 23.0778 17.9651L26.8803 15.8039C26.9739 15.7506 27.055 15.6779 27.118 15.5905C27.181 15.5031 27.2244 15.4032 27.2453 15.2976C27.5807 13.6152 27.5824 11.8832 27.2503 10.2001ZM25.8441 14.6739L22.1653 16.7626C22.046 16.8309 21.9475 16.9302 21.8803 17.0501C21.8066 17.1751 21.7291 17.3139 21.6478 17.4426C21.5738 17.5611 21.5345 17.6979 21.5341 17.8376L21.5141 21.9889C20.4798 22.8175 19.318 23.4731 18.0741 23.9301L14.3753 21.8601C14.2635 21.7972 14.1374 21.7641 14.0091 21.7639H13.9916C13.8366 21.7639 13.6791 21.7639 13.5241 21.7639C13.39 21.7606 13.2574 21.7934 13.1403 21.8589L9.43156 23.9289C8.186 23.4741 7.02253 22.8202 5.98656 21.9926L5.97156 17.8464C5.97117 17.7067 5.93177 17.5699 5.85781 17.4514C5.77781 17.3264 5.69906 17.1914 5.62531 17.0589C5.5588 16.9389 5.46066 16.8394 5.34156 16.7714L1.66281 14.6751C1.44897 13.4011 1.44897 12.1004 1.66281 10.8264L5.33531 8.73761C5.45643 8.67007 5.55673 8.57064 5.62531 8.4501C5.69906 8.3251 5.77656 8.18635 5.85781 8.0576C5.93177 7.9391 5.97117 7.8023 5.97156 7.66261L5.99156 3.51136C7.02433 2.68319 8.18433 2.02763 9.42656 1.57011L13.1253 3.64011C13.242 3.70665 13.3748 3.73953 13.5091 3.73511C13.6641 3.73511 13.8216 3.73511 13.9766 3.73511C14.1107 3.73833 14.2432 3.70552 14.3603 3.64011L18.0666 1.57011C19.3121 2.02482 20.4756 2.67875 21.5116 3.50636L21.5266 7.65261C21.527 7.7923 21.5663 7.9291 21.6403 8.0476C21.7203 8.1726 21.7991 8.3076 21.8728 8.4401C21.9393 8.56008 22.0375 8.65952 22.1566 8.7276L25.8378 10.8251C26.0529 12.0989 26.0542 13.3996 25.8416 14.6739H25.8441Z" fill="#1D1B1B" fill-opacity="0.5"/>
</svg>
