<svg width="11" height="11" viewBox="0 0 11 11" fill="none" xmlns="http://www.w3.org/2000/svg">
<path d="M5.17969 0C4.15524 0 3.1538 0.303783 2.30201 0.872935C1.45021 1.44209 0.786321 2.25104 0.394282 3.19751C0.00224419 4.14397 -0.100331 5.18543 0.0995286 6.19019C0.299388 7.19495 0.792705 8.11789 1.5171 8.84228C2.24149 9.56667 3.16442 10.06 4.16918 10.2598C5.17394 10.4597 6.21541 10.3571 7.16187 9.96509C8.10833 9.57306 8.91729 8.90916 9.48644 8.05737C10.0556 7.20557 10.3594 6.20413 10.3594 5.17969C10.3578 3.80644 9.81153 2.48991 8.8405 1.51888C7.86947 0.547846 6.55293 0.00161274 5.17969 0ZM5.17969 9.75C4.27577 9.75 3.39214 9.48195 2.64056 8.97976C1.88898 8.47757 1.30319 7.76379 0.957272 6.92867C0.611355 6.09355 0.520848 5.17462 0.697195 4.28806C0.873541 3.40151 1.30882 2.58716 1.94799 1.94799C2.58716 1.30882 3.40151 0.873539 4.28807 0.697192C5.17462 0.520846 6.09356 0.611353 6.92867 0.957269C7.76379 1.30319 8.47757 1.88897 8.97976 2.64056C9.48196 3.39214 9.75 4.27576 9.75 5.17969C9.74866 6.3914 9.26671 7.55309 8.4099 8.4099C7.5531 9.26671 6.3914 9.74866 5.17969 9.75ZM8.32813 5.17969C8.32813 5.2605 8.29603 5.33799 8.23889 5.39513C8.18175 5.45227 8.10425 5.48437 8.02344 5.48437H5.17969C5.09888 5.48437 5.02138 5.45227 4.96424 5.39513C4.9071 5.33799 4.875 5.2605 4.875 5.17969V2.33594C4.875 2.25513 4.9071 2.17763 4.96424 2.12049C5.02138 2.06335 5.09888 2.03125 5.17969 2.03125C5.2605 2.03125 5.338 2.06335 5.39514 2.12049C5.45228 2.17763 5.48438 2.25513 5.48438 2.33594V4.875H8.02344C8.10425 4.875 8.18175 4.9071 8.23889 4.96424C8.29603 5.02138 8.32813 5.09888 8.32813 5.17969Z" fill="#1D1B1B" fill-opacity="0.5"/>
</svg>
